<?xml version="1.0" encoding="UTF-8" standalone="no"?>
<!-- Created with Inkscape (http://www.inkscape.org/) -->

<svg
   xmlns:osb="http://www.openswatchbook.org/uri/2009/osb"
   xmlns:dc="http://purl.org/dc/elements/1.1/"
   xmlns:cc="http://creativecommons.org/ns#"
   xmlns:rdf="http://www.w3.org/1999/02/22-rdf-syntax-ns#"
   xmlns:svg="http://www.w3.org/2000/svg"
   xmlns="http://www.w3.org/2000/svg"
   xmlns:xlink="http://www.w3.org/1999/xlink"
   xmlns:sodipodi="http://sodipodi.sourceforge.net/DTD/sodipodi-0.dtd"
   xmlns:inkscape="http://www.inkscape.org/namespaces/inkscape"
   width="800"
   height="800"
   id="svg2"
   version="1.1"
   inkscape:version="0.48.3.1 r9886"
   sodipodi:docname="daybyday16gray.svg"
   inkscape:export-filename="/home/wizard/temp/test.png"
   inkscape:export-xdpi="90"
   inkscape:export-ydpi="90">
  <defs
     id="defs4">
    <linearGradient
       id="linearGradient3946">
      <stop
         id="stop3948"
         offset="0"
         style="stop-color:#005673;stop-opacity:1" />
      <stop
         id="stop3950"
         offset="1"
         style="stop-color:#338fad;stop-opacity:1" />
    </linearGradient>
    <linearGradient
       id="linearGradient3936">
      <stop
         style="stop-color:#005673;stop-opacity:1"
         offset="0"
         id="stop3938" />
      <stop
         style="stop-color:#338fad;stop-opacity:1"
         offset="1"
         id="stop3940" />
    </linearGradient>
    <marker
       inkscape:stockid="EmptyTriangleOutM"
       orient="auto"
       refY="0.0"
       refX="0.0"
       id="EmptyTriangleOutM"
       style="overflow:visible">
      <path
         id="path5630"
         d="M 5.77,0.0 L -2.88,5.0 L -2.88,-5.0 L 5.77,0.0 z "
         style="fill-rule:evenodd;fill:#FFFFFF;stroke:#000000;stroke-width:1.0pt"
         transform="scale(0.4) translate(-4.5,0)" />
    </marker>
    <marker
       inkscape:stockid="Arrow2Send"
       orient="auto"
       refY="0.0"
       refX="0.0"
       id="Arrow2Send"
       style="overflow:visible;">
      <path
         id="path5500"
         style="fill-rule:evenodd;stroke-width:0.62500000;stroke-linejoin:round;"
         d="M 8.7185878,4.0337352 L -2.2072895,0.016013256 L 8.7185884,-4.0017078 C 6.9730900,-1.6296469 6.9831476,1.6157441 8.7185878,4.0337352 z "
         transform="scale(0.3) rotate(180) translate(-2.3,0)" />
    </marker>
    <marker
       inkscape:stockid="Arrow2Sstart"
       orient="auto"
       refY="0.0"
       refX="0.0"
       id="Arrow2Sstart"
       style="overflow:visible">
      <path
         id="path5497"
         style="fill-rule:evenodd;stroke-width:0.62500000;stroke-linejoin:round"
         d="M 8.7185878,4.0337352 L -2.2072895,0.016013256 L 8.7185884,-4.0017078 C 6.9730900,-1.6296469 6.9831476,1.6157441 8.7185878,4.0337352 z "
         transform="scale(0.3) translate(-2.3,0)" />
    </marker>
    <marker
       inkscape:stockid="Arrow1Send"
       orient="auto"
       refY="0.0"
       refX="0.0"
       id="Arrow1Send"
       style="overflow:visible;">
      <path
         id="path5482"
         d="M 0.0,0.0 L 5.0,-5.0 L -12.5,0.0 L 5.0,5.0 L 0.0,0.0 z "
         style="fill-rule:evenodd;stroke:#000000;stroke-width:1.0pt;"
         transform="scale(0.2) rotate(180) translate(6,0)" />
    </marker>
    <marker
       inkscape:stockid="Arrow2Mend"
       orient="auto"
       refY="0.0"
       refX="0.0"
       id="Arrow2Mend"
       style="overflow:visible;">
      <path
         id="path5494"
         style="fill-rule:evenodd;stroke-width:0.62500000;stroke-linejoin:round;"
         d="M 8.7185878,4.0337352 L -2.2072895,0.016013256 L 8.7185884,-4.0017078 C 6.9730900,-1.6296469 6.9831476,1.6157441 8.7185878,4.0337352 z "
         transform="scale(0.6) rotate(180) translate(0,0)" />
    </marker>
    <marker
       inkscape:stockid="TriangleOutM"
       orient="auto"
       refY="0.0"
       refX="0.0"
       id="TriangleOutM"
       style="overflow:visible">
      <path
         id="path5612"
         d="M 5.77,0.0 L -2.88,5.0 L -2.88,-5.0 L 5.77,0.0 z "
         style="fill-rule:evenodd;stroke:#000000;stroke-width:1.0pt"
         transform="scale(0.4)" />
    </marker>
    <marker
       inkscape:stockid="TriangleOutL"
       orient="auto"
       refY="0.0"
       refX="0.0"
       id="TriangleOutL"
       style="overflow:visible">
      <path
         id="path5609"
         d="M 5.77,0.0 L -2.88,5.0 L -2.88,-5.0 L 5.77,0.0 z "
         style="fill-rule:evenodd;stroke:#000000;stroke-width:1.0pt"
         transform="scale(0.8)" />
    </marker>
    <marker
       inkscape:stockid="Arrow1Lend"
       orient="auto"
       refY="0.0"
       refX="0.0"
       id="Arrow1Lend"
       style="overflow:visible;">
      <path
         id="path5470"
         d="M 0.0,0.0 L 5.0,-5.0 L -12.5,0.0 L 5.0,5.0 L 0.0,0.0 z "
         style="fill-rule:evenodd;stroke:#000000;stroke-width:1.0pt;"
         transform="scale(0.8) rotate(180) translate(12.5,0)" />
    </marker>
    <marker
       inkscape:stockid="Arrow2Lend"
       orient="auto"
       refY="0"
       refX="0"
       id="Arrow2Lend"
       style="overflow:visible">
      <path
         id="path5400"
         style="fill-rule:evenodd;stroke-width:0.625;stroke-linejoin:round"
         d="M 8.7185878,4.0337352 -2.2072895,0.01601326 8.7185884,-4.0017078 c -1.7454984,2.3720609 -1.7354408,5.6174519 -6e-7,8.035443 z"
         transform="matrix(-1.1,0,0,-1.1,-1.1,0)"
         inkscape:connector-curvature="0" />
    </marker>
    <linearGradient
       id="linearGradient5199"
       osb:paint="solid">
      <stop
         style="stop-color:#000000;stop-opacity:1;"
         offset="0"
         id="stop5201" />
    </linearGradient>
    <linearGradient
       inkscape:collect="always"
       xlink:href="#linearGradient3049"
       id="linearGradient3102"
       gradientUnits="userSpaceOnUse"
       gradientTransform="matrix(352.26962,424.552,424.552,-352.26962,-513.67062,432.22433)"
       spreadMethod="pad"
       x1="0"
       y1="0"
       x2="1"
       y2="0" />
    <linearGradient
       id="linearGradient3049"
       spreadMethod="pad"
       gradientTransform="matrix(352.26962,424.552,424.552,-352.26962,53.186523,57.367187)"
       gradientUnits="userSpaceOnUse"
       y2="0"
       x2="1"
       y1="0"
       x1="0">
      <stop
         id="stop3051"
         offset="0"
         style="stop-opacity:1;stop-color:#005673" />
      <stop
         id="stop3053"
         offset="0.529991"
         style="stop-opacity:1;stop-color:#007399" />
      <stop
         id="stop3055"
         offset="1"
         style="stop-opacity:1;stop-color:#338fad" />
    </linearGradient>
    <linearGradient
       y2="0"
       x2="1"
       y1="0"
       x1="0"
       spreadMethod="pad"
       gradientTransform="matrix(440.33702,-530.69,530.69,440.33702,33.501658,585.14774)"
       gradientUnits="userSpaceOnUse"
       id="linearGradient3120"
       xlink:href="#linearGradient3049"
       inkscape:collect="always" />
    <linearGradient
       inkscape:collect="always"
       xlink:href="#linearGradient3049"
       id="linearGradient3924"
       gradientUnits="userSpaceOnUse"
       gradientTransform="matrix(440.33702,-530.69,530.69,440.33702,845.50165,964.14774)"
       spreadMethod="pad"
       x1="0"
       y1="0"
       x2="1"
       y2="0" />
    <linearGradient
       inkscape:collect="always"
       xlink:href="#linearGradient3936"
       id="linearGradient3942"
       x1="98.994949"
       y1="968.92358"
       x2="695.79309"
       y2="343.84122"
       gradientUnits="userSpaceOnUse" />
    <linearGradient
       inkscape:collect="always"
       xlink:href="#linearGradient3946"
       id="linearGradient3944"
       x1="94.752312"
       y1="715.14722"
       x2="690.13623"
       y2="92.893219"
       gradientUnits="userSpaceOnUse" />
    <linearGradient
       inkscape:collect="always"
       xlink:href="#linearGradient3936"
       id="linearGradient3953"
       gradientUnits="userSpaceOnUse"
       x1="98.994949"
       y1="968.92358"
       x2="695.79309"
       y2="343.84122"
       gradientTransform="translate(2,2)" />
    <linearGradient
       inkscape:collect="always"
       xlink:href="#linearGradient3946"
       id="linearGradient3956"
       gradientUnits="userSpaceOnUse"
       x1="94.752312"
       y1="715.14722"
       x2="690.13623"
       y2="92.893219" />
  </defs>
  <sodipodi:namedview
     id="base"
     pagecolor="#ffffff"
     bordercolor="#666666"
     borderopacity="1.0"
     inkscape:pageopacity="0.0"
     inkscape:pageshadow="2"
     inkscape:zoom="1"
     inkscape:cx="659.12147"
     inkscape:cy="379.50001"
     inkscape:document-units="px"
     inkscape:current-layer="layer1"
     showgrid="true"
     inkscape:window-width="1855"
     inkscape:window-height="1176"
     inkscape:window-x="65"
     inkscape:window-y="24"
     inkscape:window-maximized="1"
     width="480px"
     inkscape:showpageshadow="true"
     showguides="true"
     inkscape:guide-bbox="true">
    <sodipodi:guide
       orientation="1,0"
       position="401.03056,902.06622"
       id="guide5952" />
    <sodipodi:guide
       orientation="1,0"
       position="42.857143,1235.7143"
       id="guide5954" />
    <sodipodi:guide
       orientation="1,0"
       position="754.28571,1055.7143"
       id="guide5956" />
    <sodipodi:guide
       orientation="0,1"
       position="-220,758.57142"
       id="guide6004" />
  </sodipodi:namedview>
  <metadata
     id="metadata7">
    <rdf:RDF>
      <cc:Work
         rdf:about="">
        <dc:format>image/svg+xml</dc:format>
        <dc:type
           rdf:resource="http://purl.org/dc/dcmitype/StillImage" />
        <dc:title></dc:title>
      </cc:Work>
    </rdf:RDF>
  </metadata>
  <g
     inkscape:label="Layer 1"
     inkscape:groupmode="layer"
     id="layer1"
     transform="translate(0,-252.3622)">
    <path
       style="fill:url(#linearGradient3956);fill-opacity:1;stroke:none"
       d="M 386.5625 49.4375 C 147.99107 49.4375 60.84375 133.70982 60.84375 372.28125 L 60.84375 760.84375 L 413.6875 760.84375 C 652.25893 760.84375 739.40625 676.57143 739.40625 438 L 739.4375 49.4375 L 586.625 209.65625 C 588.25113 210.78381 589.85264 211.92379 591.46875 213.09375 L 542.3125 262.75 L 534.0625 264.75 L 534.03125 264.75 L 521.5625 267.75 L 536.375 242.625 C 498.06492 203.26264 455.81574 183.59418 409.625 183.59375 C 362.22866 183.59418 323.02597 200.8556 292.03125 235.40625 C 261.03628 269.95764 245.56242 314.44478 245.5625 368.875 C 245.56243 425.94388 261.44894 475.38362 293.25 517.1875 C 295.98878 520.78775 298.83784 524.32547 301.8125 527.8125 C 342.08638 574.71558 393.21671 598.18752 455.21875 598.1875 C 480.88681 598.18752 505.96182 592.93569 530.4375 582.46875 L 530.4375 481.34375 L 441 486.34375 L 488.40625 459.34375 L 613.96875 459.34375 L 598.59375 475.0625 C 595.42394 478.41103 593.43912 481.76396 592.65625 485.125 C 591.86045 492.65261 591.46833 502.68726 591.46875 515.25 L 591.46875 591.875 L 506.78125 612.625 C 477.55754 619.75629 444.96671 623.3125 409.03125 623.3125 C 342.36861 623.3125 289.13549 603.28358 249.28125 563.28125 C 244.27947 558.26096 239.4545 552.9629 234.875 547.3125 C 200.5179 504.58866 183.34371 454.10708 183.34375 395.90625 C 183.34371 331.827 204.29143 277.40119 246.15625 232.59375 C 291.16618 184.84764 350.00129 160.96921 422.65625 160.96875 C 453.45803 160.96921 483.65986 165.36397 513.28125 174.15625 C 538.75761 181.60134 563.19225 193.42966 586.59375 209.65625 L 739.4375 49.4375 L 386.5625 49.4375 z "
       transform="translate(0,252.3622)"
       id="path6002"
       inkscape:export-filename="/home/dzakhovds/Изображения/DayByDay/plugin/daybyday16gray.png"
       inkscape:export-xdpi="2.02"
       inkscape:export-ydpi="2.02" />
  </g>
</svg>
